<svg xmlns="http://www.w3.org/2000/svg" viewBox="0 0 128 128"><defs><style>.cls-1{isolation:isolate;}.cls-2{fill:#0c91ae;}.cls-3{opacity:0.2;mix-blend-mode:multiply;}.cls-4{fill:#fff;}.cls-5{fill:#f36e51;stroke:#f36e51;stroke-miterlimit:10;}</style></defs><title>Artboard 5</title><g class="cls-1"><g id="Layer_1" data-name="Layer 1"><rect class="cls-2" width="128" height="128"/><g class="cls-3"><path d="M97.12,61.6H91.5V44.72a22.5,22.5,0,1,0-45,0V61.6H40.88a5.64,5.64,0,0,0-5.63,5.63V106.6a5.64,5.64,0,0,0,5.63,5.63H97.12a5.64,5.64,0,0,0,5.63-5.63V67.22A5.64,5.64,0,0,0,97.12,61.6ZM69,95.35a5.62,5.62,0,1,1,5.62-5.62A5.62,5.62,0,0,1,69,95.35ZM80.25,61.6H57.75V44.72a11.25,11.25,0,1,1,22.5,0Z"/></g><path class="cls-4" d="M92.12,56.6H86.5V39.72a22.5,22.5,0,1,0-45,0V56.6H35.88a5.64,5.64,0,0,0-5.63,5.63V101.6a5.64,5.64,0,0,0,5.63,5.63H92.12a5.64,5.64,0,0,0,5.63-5.63V62.22A5.64,5.64,0,0,0,92.12,56.6ZM64,90.35a5.62,5.62,0,1,1,5.62-5.62A5.62,5.62,0,0,1,64,90.35ZM75.25,56.6H52.75V39.72a11.25,11.25,0,1,1,22.5,0Z"/><path class="cls-5" d="M92.7,108,81.25,98.32a5.11,5.11,0,0,0-3.47-1.51,18.12,18.12,0,1,0-2,2,5.1,5.1,0,0,0,1.51,3.47L87,113.75a4.06,4.06,0,1,0,5.7-5.7ZM64,97.13A12.08,12.08,0,1,1,76.08,85.05,12.08,12.08,0,0,1,64,97.13Z"/></g></g></svg>